PathFileType	4	(X/Y/Z)	7_coords_data.trc
DataRate	CameraRate	NumFrames	NumMarkers	Units	OrigDataRate	OrigDataStartFrame	OrigNumFrames
30.0	30.0	5	21	m	30.0	42	62
Frame#	Time	THUMB_TIP	THUMB_IP	THUMB_MCP	THUMB_CMC	INDEX_TIP	INDEX_DIP	INDEX_PIP	INDEX_MCP	MIDDLE_TIP	MIDDLE_DIP	MIDDLE_PIP	MIDDLE_MCP	RING_TIP	RING_DIP	RING_PIP	RING_MCP	PINKY_TIP	PINKY_DIP	PINKY_PIP	PINKY_MCP	WRIST
X1	Y1	Z1	X2	Y2	Z2	X3	Y3	Z3	X4	Y4	Z4	X5	Y5	Z5	X6	Y6	Z6	X7	Y7	Z7	X8	Y8	Z8	X9	Y9	Z9	X10	Y10	Z10	X11	Y11	Z11	X12	Y12	Z12	X13	Y13	Z13	X14	Y14	Z14	X15	Y15	Z15	X16	Y16	Z16	X17	Y17	Z17	X18	Y18	Z18	X19	Y19	Z19	X20	Y20	Z20	X21	Y21	Z21
41	1.3666666666666667	-0.04612870025634765	-0.05842010116577148	0.9844719848632812	-0.036697498321533205	-0.037726001739501955	0.9995	-0.03551060104370117	-0.023679000854492187	1.025	-0.03622359848022461	0.005830880165100098	1.0466800537109375	-0.02661870002746582	0.0007433750033378602	1.0155800170898437	-0.010574700355529786	0.005601570129394531	1.00627001953125	-0.009007659912109375	0.008564189910888672	0.9835650024414062	-0.0461953010559082	0.001473099946975708	0.9889810180664063	-0.02376989936828613	0.015728500366210936	1.025050048828125	-0.012503800392150878	0.022430000305175782	1.0173599853515625	-0.007376190185546875	0.03023889923095703	0.9926680297851562	-0.04736240005493164	0.0259512996673584	0.9871420288085937	-0.03189929962158203	0.028628700256347655	1.033260009765625	-0.0179640998840332	0.037500099182128904	1.02606005859375	-0.01221090030670166	0.048417198181152345	1.0049199829101563	-0.04977880096435547	0.04613079833984375	0.9964429931640625	-0.03463919830322266	0.04247829818725586	1.0389599609375	-0.021845500946044923	0.050664199829101565	1.0334000244140624	-0.020182600021362306	0.06055739974975586	1.0185499877929687	-0.04992530059814453	0.06125709915161133	1.010260009765625	-0.058521800994873044	0.02884709930419922	1.0623499755859376
42	1.4	-0.04603300094604492	-0.05824050140380859	0.9846129760742187	-0.036587699890136716	-0.03753969955444336	0.9997080078125	-0.03540739822387695	-0.023506700515747072	1.025260009765625	-0.03616730117797851	0.005994359970092774	1.0469200439453126	-0.026651699066162108	0.0009383569955825801	1.0158800048828125	-0.010461899757385254	0.0058798398971557616	1.0066300048828125	-0.00886870002746582	0.008900650024414062	0.983823974609375	-0.045976200103759766	0.0016301800012588502	0.9892440185546875	-0.023672300338745116	0.015884300231933594	1.0250799560546875	-0.012430299758911132	0.022693099975585936	1.0175700073242187	-0.0073224401473999026	0.0305487003326416	0.9926580200195313	-0.047194900512695315	0.026093700408935546	0.9873380126953125	-0.0315590991973877	0.028991600036621094	1.0331099853515624	-0.017907699584960936	0.03771659851074219	1.0262900390625	-0.012150400161743164	0.048641498565673826	1.0054000244140624	-0.04969889831542969	0.0462781982421875	0.9966409912109375	-0.03511660003662109	0.0423401985168457	1.03868994140625	-0.02182360076904297	0.050789798736572266	1.0336199951171876	-0.02014889907836914	0.0607760009765625	1.0188099975585938	-0.04984510040283203	0.0614541015625	1.0105399780273439	-0.05855039978027344	0.028965999603271484	1.0625799560546876
43	1.4333333333333333	-0.04592549896240234	-0.05804399871826172	0.9847440185546875	-0.036559501647949216	-0.037353500366210934	0.9999420166015625	-0.03544359970092773	-0.02332979965209961	1.025469970703125	-0.03622790145874023	0.006181640148162842	1.0471500244140626	-0.02635460090637207	0.001214040040969848	1.016489990234375	-0.010485699653625488	0.006049769878387451	1.0066099853515624	-0.008907190322875977	0.009082710266113281	0.983916015625	-0.046007598876953125	0.001833639979362487	0.9894169921875	-0.023738800048828126	0.016100799560546875	1.024969970703125	-0.012468500137329102	0.02291080093383789	1.0176599731445313	-0.007378769874572754	0.03077560043334961	0.9930430297851562	-0.04724689865112305	0.026309700012207032	0.987531982421875	-0.031697500228881834	0.0292677001953125	1.0332099609375	-0.017980899810791016	0.03795489883422851	1.0263499755859375	-0.012215100288391113	0.04888240051269531	1.0055800170898437	-0.049747501373291016	0.04647740173339844	0.9967890014648437	-0.03524300003051758	0.042575801849365234	1.0388299560546874	-0.02187179946899414	0.05115589904785156	1.0335899658203125	-0.020258699417114258	0.061049999237060545	1.0188099975585938	-0.049938400268554686	0.061636699676513675	1.0105900268554688	-0.05863600158691406	0.029103500366210937	1.06281005859375
44	1.4666666666666666	-0.04560509872436523	-0.058075000762939456	0.9848359985351562	-0.036488201141357424	-0.03733390045166016	1.0000800170898438	-0.03551900100708008	-0.023250999450683593	1.0256800537109374	-0.0363026008605957	0.006282909870147705	1.0471800537109375	-0.026584499359130858	0.001206069946289062	1.016239990234375	-0.010752300262451171	0.006026969909667969	1.00627001953125	-0.009492560386657715	0.008944479942321778	0.9834669799804687	-0.04646680068969727	0.00175241994857788	0.9894710083007813	-0.023935300827026367	0.016056400299072265	1.0249599609375	-0.012666000366210937	0.022843000411987304	1.0174000244140624	-0.007836180210113525	0.030688499450683592	0.99227197265625	-0.04780709838867187	0.026186000823974608	0.9876279907226563	-0.03198250007629395	0.029061199188232422	1.033199951171875	-0.018111799240112306	0.038007598876953125	1.0258900146484375	-0.012634699821472167	0.04884619903564453	1.004780029296875	-0.0503583984375	0.0463047981262207	0.9967589721679687	-0.03520109939575195	0.04266640090942383	1.038449951171875	-0.021934900283813476	0.051235000610351564	1.03281005859375	-0.0205049991607666	0.06109510040283203	1.0181699829101563	-0.05042630004882812	0.061555099487304685	1.0104099731445313	-0.058643001556396485	0.02920330047607422	1.0628199462890624
45	1.5	-0.04461280059814453	-0.05897549819946289	0.9855910034179688	-0.03608539962768555	-0.038043800354003905	1.0008599853515625	-0.03574580001831055	-0.023607799530029297	1.026449951171875	-0.03655229949951172	0.006166259765625	1.0473699951171875	-0.02660379981994629	0.0007491310238838191	1.015989990234375	-0.011060199737548827	0.005127659797668457	1.00472998046875	-0.011142800331115723	0.007499159812927246	0.981656005859375	-0.04781629943847656	0.000912540972232818	0.9898870239257812	-0.024465999603271484	0.015245200157165528	1.0237100219726563	-0.012546400070190429	0.022178199768066405	1.0151300048828125	-0.008907540321350098	0.02950670051574707	0.9897689819335938	-0.049339298248291016	0.02520840072631836	0.987551025390625	-0.03205350112915039	0.028565000534057618	1.0321199951171875	-0.01784670066833496	0.03757780075073242	1.023239990234375	-0.01337320041656494	0.048014598846435545	1.0015700073242189	-0.05158549880981445	0.04516360092163086	0.996156982421875	-0.034825401306152345	0.04244300079345703	1.037760009765625	-0.021664400100708008	0.050854000091552734	1.0305899658203126	-0.02093630027770996	0.060463001251220706	1.0153300170898438	-0.051195598602294924	0.06063560104370117	1.0093099975585937	-0.05848020172119141	0.02928420066833496	1.0628199462890624
